<svg  xmlns="http://www.w3.org/2000/svg"  height="20" viewBox="0 0 203 20" fill="none">
<path
                                    d="M101.233 3.54474C101.233 3.15853 101.238 2.77231 101.228 2.3861C101.218 2.11233 101.148 1.85811 101.039 1.61367C100.824 1.14435 100.49 0.772802 100.061 0.489253C99.6821 0.239925 99.2681 0.0932617 98.8093 0.0932617C93.6873 0.0932617 88.5703 0.0932617 83.4483 0.0932617C83.3236 0.0932617 83.1989 0.0932617 83.0742 0.127483C82.0817 0.357256 81.4433 0.963465 81.1042 1.89722C81.0543 2.039 81.0494 2.18566 81.0244 2.33232V17.4387C81.0394 17.4778 81.0394 17.512 81.0244 17.5511V17.6831C81.0543 18.0009 81.1491 18.304 81.3087 18.5826C81.6179 19.1106 82.0518 19.4968 82.6204 19.7413C82.8498 19.839 83.0842 19.8928 83.3336 19.9075H83.4483C83.4882 19.8928 83.5231 19.8928 83.563 19.9075H98.7794C98.7794 19.9075 98.8043 19.8977 98.8193 19.9075H98.8791C99.0038 19.883 99.1335 19.8928 99.2582 19.8635C99.6771 19.7657 100.041 19.5751 100.36 19.2915C100.909 18.7977 101.238 18.2062 101.238 17.4582C101.238 12.8236 101.238 8.18908 101.238 3.54963L101.233 3.54474ZM94.8344 3.18786C94.8344 2.69898 95.2284 2.31277 95.7321 2.30788C96.1161 2.30788 96.5001 2.30788 96.8842 2.30788C97.2532 2.30788 97.6223 2.30788 97.9914 2.30788C98.545 2.30788 98.934 2.6892 98.934 3.23186C98.934 3.92118 98.934 4.61538 98.934 5.3047C98.934 5.83269 98.545 6.20913 98.0063 6.21402C97.2582 6.21402 96.5051 6.21402 95.757 6.21402C95.2234 6.21402 94.8344 5.83758 94.8344 5.31448C94.8344 4.60561 94.8344 3.90162 94.8344 3.19275V3.18786ZM87.094 9.67527C87.2037 8.24775 87.9768 7.24555 89.2136 6.55623C89.862 6.19446 90.5802 6.06735 91.3233 6.11135C92.9791 6.20424 94.1611 7.00111 94.8842 8.45308C95.1635 9.01529 95.2234 9.63127 95.1885 10.2521C95.0887 11.9681 93.6923 13.2881 92.2858 13.6645C91.9118 13.7623 91.5278 13.821 91.1338 13.8112C89.5029 13.7721 88.281 13.0485 87.493 11.6503C87.1489 11.0392 87.0441 10.3646 87.099 9.67038L87.094 9.67527ZM98.5001 17.5267C98.3953 17.5804 98.2856 17.6049 98.1709 17.6147C98.136 17.6147 98.1011 17.6147 98.0662 17.6147C93.423 17.6147 88.7797 17.6147 84.1415 17.6147C83.932 17.6147 83.7375 17.5755 83.568 17.4435C83.3685 17.2822 83.2737 17.0769 83.2737 16.8276C83.2737 15.3169 83.2737 13.8063 83.2737 12.2908C83.2737 11.0539 83.2737 9.81216 83.2737 8.5753C83.2737 8.4873 83.2937 8.46774 83.3834 8.46774C83.932 8.46774 84.4806 8.46774 85.0293 8.46774C85.129 8.46774 85.129 8.49219 85.1041 8.57041C84.8347 9.4455 84.8048 10.3401 84.9644 11.2348C85.1888 12.5205 85.8322 13.5863 86.8047 14.4712C87.4332 15.0432 88.1414 15.488 88.9543 15.7716C89.3932 15.928 89.852 16.0258 90.3158 16.0796C91.2136 16.1822 92.1063 16.1431 92.9691 15.8742C95.0339 15.2387 96.4652 13.9432 97.1535 11.9192C97.5325 10.8144 97.5275 9.68505 97.1934 8.56063C97.1884 8.53619 97.1784 8.51174 97.1734 8.4873C97.1734 8.48241 97.1734 8.47752 97.1734 8.46285H98.7494C98.8758 8.46285 98.939 8.52478 98.939 8.64863C98.939 11.357 98.939 14.0654 98.939 16.7738C98.939 17.1062 98.8043 17.3555 98.5051 17.5169L98.5001 17.5267Z"
                                    fill="#5A92DB" />
</svg>