<svg xmlns="http://www.w3.org/2000/svg" width="228" height="228" viewBox="0 0 228 228" fill="none">
  <g clip-path="url(#clip0_0_98)">
    <path d="M64.0012 194.597C55.5542 203.044 41.8496 203.044 33.4026 194.597C24.9556 186.15 24.9556 172.445 33.4026 163.998C41.8496 155.551 55.5542 155.551 64.0012 163.998C72.4483 172.445 72.4483 186.15 64.0012 194.597Z" fill="white"/>
    <path d="M163.999 194.597C155.552 186.15 155.552 172.445 163.999 163.998C172.446 155.551 186.15 155.551 194.597 163.998C203.044 172.445 203.044 186.15 194.597 194.597C186.15 203.044 172.446 203.044 163.999 194.597Z" fill="white"/>
    <path d="M98.7007 221.656C90.2537 213.209 90.2537 199.504 98.7007 191.057C107.148 182.61 120.852 182.61 129.299 191.057C137.746 199.504 137.746 213.209 129.299 221.656C120.852 230.103 107.148 230.103 98.7007 221.656Z" fill="white"/>
    <path d="M206.339 135.643C194.387 135.643 184.678 125.934 184.678 113.982C184.678 102.03 194.352 92.3213 206.339 92.3213C218.326 92.3213 228 101.995 228 113.982C228 125.969 218.326 135.643 206.339 135.643Z" fill="white"/>
    <path d="M21.6609 135.643C9.70884 135.643 0 125.934 0 113.982C0 102.03 9.67379 92.3213 21.6609 92.3213C33.648 92.3213 43.3218 101.995 43.3218 113.982C43.3218 125.969 33.648 135.643 21.6609 135.643Z" fill="white"/>
    <path d="M92.3566 21.6609C92.3566 9.70884 102.065 0 114.017 0C125.97 0 135.678 9.67379 135.678 21.6609C135.678 33.648 126.005 43.3218 114.017 43.3218C102.03 43.3218 92.3566 33.648 92.3566 21.6609Z" fill="white"/>
    <path d="M48.6844 27.0586C36.7324 27.0586 27.0235 36.7324 27.0235 48.7195C27.0235 60.7066 36.7324 70.3803 48.6844 70.3803C60.6364 70.3803 70.3453 60.7066 70.3453 48.7195C70.3453 36.7324 60.6715 27.0586 48.6844 27.0586ZM48.6844 65.4033C39.4663 65.4033 32.0006 57.9376 32.0006 48.7195C32.0006 39.5013 39.4663 32.0357 48.6844 32.0357C57.9025 32.0357 65.3682 39.5013 65.3682 48.7195C65.3682 57.9376 57.9025 65.4033 48.6844 65.4033Z" fill="white"/>
    <path d="M179.316 27.0586C167.364 27.0586 157.655 36.7324 157.655 48.7195C157.655 60.7066 167.329 70.3803 179.316 70.3803C191.303 70.3803 200.976 60.6715 200.976 48.7195C200.976 36.7674 191.303 27.0586 179.316 27.0586ZM179.316 65.4033C170.097 65.4033 162.632 57.9376 162.632 48.7195C162.632 39.5013 170.097 32.0357 179.316 32.0357C188.534 32.0357 195.999 39.5013 195.999 48.7195C195.999 57.9376 188.534 65.4033 179.316 65.4033Z" fill="white"/>
  </g>
  <defs>
    <clipPath id="clip0_0_98">
      <rect width="228" height="228" fill="white"/>
    </clipPath>
  </defs>
</svg>