<svg  xmlns="http://www.w3.org/2000/svg"  height="20" viewBox="0 0 203 20" fill="none"><path
                                    d="M32.8117 17.7712C35.081 19.184 37.7741 20.0004 40.6618 20.0004C48.7712 20.0004 55.3446 13.557 55.3446 5.60787C55.3446 5.40743 55.3446 5.21187 55.3346 5.01632C55.6288 4.79144 57.4442 3.36392 57.8881 2.44971C57.8881 2.44971 56.4169 3.05103 54.9755 3.19281C54.9755 3.19281 54.9705 3.19281 54.9655 3.19281C54.9655 3.19281 54.9655 3.19281 54.9755 3.19281C55.1102 3.10481 56.9655 1.86795 57.2148 0.391537C57.2148 0.391537 56.1725 0.93908 54.7162 1.41329C54.4768 1.49151 54.2224 1.56973 53.9631 1.64306C53.0205 0.66042 51.6839 0.0444336 50.2026 0.0444336C47.3548 0.0444336 45.0507 2.30305 45.0507 5.09454C45.0507 5.48565 45.0956 5.87186 45.1853 6.23852C44.7864 6.22385 38.7317 5.89142 34.6122 0.997746C34.6122 0.997746 32.1484 4.29278 36.0784 7.68071C36.0784 7.68071 34.8815 7.63182 33.8541 7.0305C33.8541 7.0305 33.4751 11.0246 37.9288 12.0415C37.9288 12.0415 37.051 12.369 35.6545 12.1344C35.6545 12.1344 36.4375 15.361 40.3925 15.6641C40.3925 15.6641 37.2654 18.4311 32.8267 17.7809L32.8117 17.7712Z"
                                    fill="#5A92DB" /></svg>