<svg  xmlns="http://www.w3.org/2000/svg"  height="20" viewBox="0 0 203 20" fill="none"><path
                                    d="M127.317 2.31191C127.317 1.64215 127.556 1.08972 128.035 0.649725C128.514 0.214624 129.137 -0.00537109 129.905 -0.00537109C130.673 -0.00537109 131.267 0.209735 131.731 0.639948C132.21 1.08483 132.449 1.6617 132.449 2.37058C132.449 3.0159 132.215 3.55366 131.751 3.97899C131.272 4.42386 130.644 4.64386 129.861 4.64386H129.841C129.087 4.64386 128.479 4.42386 128.015 3.97899C127.551 3.53411 127.317 2.98167 127.317 2.30702V2.31191ZM127.586 19.9213V6.48204H132.145V19.9262H127.586V19.9213ZM134.668 19.9213H139.227V12.4121C139.227 11.9428 139.282 11.581 139.391 11.3268C139.581 10.8722 139.875 10.486 140.264 10.1682C140.653 9.85041 141.142 9.69397 141.73 9.69397C143.262 9.69397 144.03 10.7059 144.03 12.7348V19.9213H148.588V12.2117C148.588 10.2268 148.109 8.7211 147.152 7.69446C146.194 6.66781 144.927 6.15449 143.351 6.15449C141.586 6.15449 140.209 6.89759 139.222 8.38866V8.42777H139.202L139.222 8.38866V6.47715H134.663C134.688 6.90736 134.703 8.242 134.703 10.4811C134.703 12.7201 134.688 15.8685 134.663 19.9213H134.668Z"
                                    fill="#5A92DB" /></svg>